REM Ripping Tool: trurip

FILE "Space Adventure Cobra II - Densetsu no Otoko (1991)(Hudson)(JP).img" BINARY
  TRACK 01 AUDIO
    INDEX 01 00:00:00
  TRACK 02 MODE1/2352
    INDEX 00 00:44:66
    INDEX 01 00:47:65
  TRACK 03 AUDIO
    INDEX 00 15:58:22
    INDEX 01 16:00:22
  TRACK 04 AUDIO
    INDEX 01 18:24:12
  TRACK 05 AUDIO
    INDEX 01 21:11:66
  TRACK 06 AUDIO
    INDEX 01 22:14:03
  TRACK 07 AUDIO
    INDEX 01 22:49:13
  TRACK 08 AUDIO
    INDEX 01 23:45:70
  TRACK 09 MODE1/2352
    INDEX 00 24:18:08
    INDEX 01 24:21:07

REM DISC HASHES
REM CRC32 : 82070055
REM MD5   : 61e68d7a2085bd021930c22edc7d1b9e
REM SHA1  : e467ec79d0dd1464e2099362d8e0009e2064d2fc

REM Gap Append Method: Prev [crc32]
REM Trk 01: ccd25d2f
REM Trk 02: 8fca2bc9
REM Trk 03: 8e6797d3
REM Trk 04: eefd82d0
REM Trk 05: a7d8aaab
REM Trk 06: 685b3d78
REM Trk 07: f3003591
REM Trk 08: 3df0653a
REM Trk 09: b3d8726a

REM Gap Append Method: Prev [md5]
REM Trk 01: 7938d9aa88f644b60389fa8246f2052e
REM Trk 02: c52c0cf6605fff423529438e79f4f82b
REM Trk 03: d954bf287b7880dbe00999d7f6ebdc0f
REM Trk 04: f7579f4d501505f8b3ce854bc4ebc359
REM Trk 05: fdf3cb1576a935d8921b45e6b8dbb30c
REM Trk 06: 8b828165c6a90834cde067abbf06b929
REM Trk 07: 0e9361798a48999d1aa5b5b659464a69
REM Trk 08: 4d2210ddaa63ed7099c6231796539001
REM Trk 09: e38d0a40eb31ca7632126d274e080a76

REM Gap Append Method: Prev [sha1]
REM Trk 01: 0fc7f8840f23f43ebfb7041f71427c165f368105
REM Trk 02: adf8637d4bb2dfa97f4a3477212dc92db467dd01
REM Trk 03: 553f274b73cc27e5e64514d5fe26294a6032765e
REM Trk 04: 01e39440f93833a1bf6c6d854ac57f200ea13088
REM Trk 05: bbf46d0f30283d9f771a73e3840441b2e0384a44
REM Trk 06: b2a970833ece2b4cc7ace98f72575aa89c80842c
REM Trk 07: 1f91ca450306e67652db97ef28a66ca43bbcc1a8
REM Trk 08: 9df3a572f11cac04d277dc932dbf524e277668e2
REM Trk 09: d11c1956fb750b367aacbd42086b60c2f95b3290

REM Gap Append Method: None [crc32]
REM Trk 01: 22144d0f
REM Trk 02: 66d46fa5
REM Trk 03: 8e6797d3
REM Trk 04: eefd82d0
REM Trk 05: a7d8aaab
REM Trk 06: 685b3d78
REM Trk 07: f3003591
REM Trk 08: 609ae72f
REM Trk 09: b3d8726a
REM Gap 02: 827af62a
REM Gap 03: 7abe247f
REM Gap 09: 8ae2cbde

REM Gap Append Method: None [md5]
REM Trk 01: ad1067d0bcc2ffeea540d3b985c51188
REM Trk 02: 4ef73e38ce731848bed0eb39bd6772c7
REM Trk 03: d954bf287b7880dbe00999d7f6ebdc0f
REM Trk 04: f7579f4d501505f8b3ce854bc4ebc359
REM Trk 05: fdf3cb1576a935d8921b45e6b8dbb30c
REM Trk 06: 8b828165c6a90834cde067abbf06b929
REM Trk 07: 0e9361798a48999d1aa5b5b659464a69
REM Trk 08: c7ceaa1a503574fe43b666316f94502c
REM Trk 09: e38d0a40eb31ca7632126d274e080a76
REM Gap 02: 81b839ffd4ac0e6f7233b24c50c2b29a
REM Gap 03: 9df204fbc98bb8965081cb30a89715fc
REM Gap 09: aa823f6f7b3e6694963f1acfb073f97d

REM Gap Append Method: None [sha1]
REM Trk 01: 3b472f5e80bbf8259e09f8e4f547567bddb02490
REM Trk 02: 774c4827d6709a7264b7983e3710670a09081fd7
REM Trk 03: 553f274b73cc27e5e64514d5fe26294a6032765e
REM Trk 04: 01e39440f93833a1bf6c6d854ac57f200ea13088
REM Trk 05: bbf46d0f30283d9f771a73e3840441b2e0384a44
REM Trk 06: b2a970833ece2b4cc7ace98f72575aa89c80842c
REM Trk 07: 1f91ca450306e67652db97ef28a66ca43bbcc1a8
REM Trk 08: 731692967c6d74425e440e6608bcc63a4943c7f5
REM Trk 09: d11c1956fb750b367aacbd42086b60c2f95b3290
REM Gap 02: a5591b4b16bfa8856e500cde408ad601734109d8
REM Gap 03: cbe29e0bd725ef1194f8c47619dd42078e841de2
REM Gap 09: 6b50a9e8de5c5d9d5fd7e6c942e4473209d86960

REM Gap Append Method: Next [crc32]
REM Trk 01: 22144d0f
REM Trk 02: 4b0857df
REM Trk 03: 4727754a
REM Trk 04: eefd82d0
REM Trk 05: a7d8aaab
REM Trk 06: 685b3d78
REM Trk 07: f3003591
REM Trk 08: 609ae72f
REM Trk 09: c4f5c7f6

REM Gap Append Method: Next [md5]
REM Trk 01: ad1067d0bcc2ffeea540d3b985c51188
REM Trk 02: 50fdd533aca72e5c068ce4caf0adc874
REM Trk 03: 6c02c46038e0719841a30cd510425a29
REM Trk 04: f7579f4d501505f8b3ce854bc4ebc359
REM Trk 05: fdf3cb1576a935d8921b45e6b8dbb30c
REM Trk 06: 8b828165c6a90834cde067abbf06b929
REM Trk 07: 0e9361798a48999d1aa5b5b659464a69
REM Trk 08: c7ceaa1a503574fe43b666316f94502c
REM Trk 09: c59626cb010b0ffe0811b1d39b0ac324

REM Gap Append Method: Next [sha1]
REM Trk 01: 3b472f5e80bbf8259e09f8e4f547567bddb02490
REM Trk 02: 53ffa6f942161409cff9802cd0d98518ffbbe677
REM Trk 03: 7cee43e77e5f7e706ec690bf8a6a5c770925093c
REM Trk 04: 01e39440f93833a1bf6c6d854ac57f200ea13088
REM Trk 05: bbf46d0f30283d9f771a73e3840441b2e0384a44
REM Trk 06: b2a970833ece2b4cc7ace98f72575aa89c80842c
REM Trk 07: 1f91ca450306e67652db97ef28a66ca43bbcc1a8
REM Trk 08: 731692967c6d74425e440e6608bcc63a4943c7f5
REM Trk 09: d88383d556bae44dd698eeb92b8799ebfd386ca5

